<?xml version="1.0" encoding="UTF-8" standalone="no"?>
<!-- Uploaded to: SVG Repo, www.svgrepo.com, Transformed by: SVG Repo Mixer Tools -->

<svg
   viewBox="0 0 512 512"
   id="svg3007"
   version="1.1"
   fill="#000000"
   data-darkreader-inline-fill=""
   style="--darkreader-inline-fill: var(--darkreader-background-000000, #000000);"
   transform="rotate(180)"
   sodipodi:docname="car.svg"
   inkscape:version="1.4 (86a8ad7, 2024-10-11)"
   xmlns:inkscape="http://www.inkscape.org/namespaces/inkscape"
   xmlns:sodipodi="http://sodipodi.sourceforge.net/DTD/sodipodi-0.dtd"
   xmlns="http://www.w3.org/2000/svg"
   xmlns:svg="http://www.w3.org/2000/svg">
  <defs
     id="defs1" />
  <sodipodi:namedview
     id="namedview1"
     pagecolor="#505050"
     bordercolor="#eeeeee"
     borderopacity="1"
     inkscape:showpageshadow="0"
     inkscape:pageopacity="0"
     inkscape:pagecheckerboard="0"
     inkscape:deskcolor="#505050"
     inkscape:zoom="1.1145218"
     inkscape:cx="155.67214"
     inkscape:cy="384.46982"
     inkscape:window-width="1920"
     inkscape:window-height="1009"
     inkscape:window-x="-8"
     inkscape:window-y="-8"
     inkscape:window-maximized="1"
     inkscape:current-layer="SVGRepo_iconCarrier" />
  <g
     id="SVGRepo_bgCarrier"
     stroke-width="0" />
  <g
     id="SVGRepo_tracerCarrier"
     stroke-linecap="round"
     stroke-linejoin="round" />
  <g
     id="SVGRepo_iconCarrier">
    <defs
       id="defs3009" />
    <g
       id="layer1"
       transform="translate(0,-540.36218)"
       style="fill:#ffffff">
      <g
         id="g4295"
         style="fill:#ffffff">
        <path
           d=""
           id="path4028"
           style="color:rgb(0, 0, 0);fill:#ffffff;fill-opacity:1;fill-rule:nonzero;stroke:none;stroke-width:20;marker:none;visibility:visible;display:inline;overflow:visible"
           transform="translate(0,540.36218)"
           data-darkreader-inline-color=""
           data-darkreader-inline-fill=""
           data-darkreader-inline-stroke="" />
        <path
           d="m 217.13642,686.49653 c -0.0357,6e-4 -0.14981,0.0181 -0.24,0.02 -0.87778,0.0194 -3.99768,0.0945 -5.7,0.48 -1.90342,0.43104 -3.80556,1.01751 -5.48,2.02 -2.50472,1.49965 -4.61679,3.64138 -6.56,5.82 -1.62169,1.81818 -2.86241,3.94371 -4.2,5.98 -0.53772,0.81863 -1.23176,1.58394 -1.52,2.52 -0.0398,0.12911 -0.093,0.24477 -0.12,0.38 -31.25675,0.0882 -62.51305,0.31019 -93.759999,1.02 -18.762206,0.62707 -37.167472,10.05239 -47.439992,25.98 -4.401784,5.13425 -7.214072,11.19834 -8.48,17.76 -7.317976,19.75288 -4.191064,41.28355 -4.86,61.9 -0.621408,16.44047 2.831368,32.97476 10.28,47.6 8.660096,13.64969 21.606544,25.82672 38.159996,28.3 23.190605,4.82131 47.075915,2.08365 70.579995,2.88 11.85404,-0.0263 23.70564,-0.0182 35.56,-0.02 0.0203,0.0847 0.0548,0.15807 0.08,0.24 0.28824,0.93606 0.98228,1.70139 1.52,2.52 1.33759,2.03628 2.57831,4.16185 4.2,5.98 1.94321,2.17863 4.05528,4.32039 6.56,5.82 1.67444,1.00252 3.57658,1.58899 5.48,2.02 1.70232,0.38547 4.82222,0.46069 5.7,0.48 0.39521,0.0811 0.81989,0.0108 1.1,-0.2 0.28011,-0.21079 0.36846,-0.41857 0.44,-0.9 0.0715,-0.48141 -6e-4,-0.68937 -0.32,-1.9 -0.31915,-1.21063 -1.08197,-3.31953 -1.9,-5.24 -0.81803,-1.92046 -2.17583,-4.55649 -3.08,-6.22 -0.57813,-1.06366 -1.04799,-1.86772 -1.5,-2.6 15.42148,0.007 30.83838,0.007 46.26,0.02 0.0542,0.0712 0.11147,0.14771 0.18,0.22 0.35576,0.37523 0.87286,0.87216 1.86,1.22 0.98715,0.34784 1.03685,0.25022 4.04,0.4 3.00315,0.14979 10.61173,0.0969 12.84002,-0.04 2.22829,-0.13693 2.62509,-0.17186 3.72,-0.6 0.88435,-0.3458 1.54445,-0.51239 1.68,-1.18 23.49574,0.006 47.00493,-0.021 70.50003,-0.12 0.86375,0.29284 1.05882,0.21734 3.92,0.36 3.00288,0.14979 10.63168,0.0969 12.85997,-0.04 1.8375,-0.11291 2.43552,-0.16667 3.2,-0.42 19.41229,-0.12141 38.82912,-0.30509 58.24,-0.58 13.57414,0.032 27.06349,-8.42931 31.62003,-21.48 11.63763,-28.70999 11.42835,-60.54084 10.24,-91.04 -1.52,-19.91366 -4.08928,-40.86446 -14.88,-58.06 -9.66841,-13.69542 -28.30093,-14.09957 -43.48006,-14.04 -14.29447,-0.14953 -28.58432,-0.20843 -42.88,-0.24 -0.4857,-0.0644 -1.07834,-0.11966 -2.05997,-0.18 -2.22829,-0.13683 -9.85709,-0.18976 -12.85997,-0.04 -1.97113,0.0983 -2.63309,0.0978 -3.16006,0.18 -18.30637,-0.005 -36.61344,0.0394 -54.91994,0.04 -5.43936,0.0294 -10.88083,0.0422 -16.32006,0.06 -0.11418,-0.70563 -0.79635,-0.86663 -1.69997,-1.22 -1.09491,-0.42816 -1.49171,-0.4631 -3.72,-0.6 -2.22829,-0.13689 -9.83687,-0.18982 -12.84002,-0.04 -3.00315,0.14976 -3.05285,0.0522 -4.04,0.4 -0.98714,0.34784 -1.50424,0.84477 -1.86,1.22 -0.0889,0.0938 -0.17716,0.18699 -0.24,0.28 -15.42082,0.0197 -30.8389,0.0388 -46.26,0.06 0.47103,-0.75771 0.95512,-1.58712 1.56,-2.7 0.90417,-1.66355 2.26197,-4.29949 3.08,-6.22 0.81803,-1.92045 1.58085,-4.02937 1.9,-5.24 0.3194,-1.21069 0.39154,-1.41853 0.32,-1.9 -0.0715,-0.48141 -0.15989,-0.68925 -0.44,-0.9 -0.19148,-0.14425 -0.45165,-0.21013 -0.72,-0.22 -0.0456,-0.002 -0.0939,-0.002 -0.14,0 z m 52.58,17.08 c 0.56925,-0.006 1.21616,-0.006 1.84,0.02 -0.88726,0.002 -1.77272,-0.002 -2.66,0 0.28238,-0.011 0.57178,-0.0172 0.82,-0.02 z m 161.62002,7.32 c 3.98362,-0.10006 8.47507,0.49707 10.90003,1.74 5.93658,3.04302 9.49709,7.73067 10.88,14.34 0.45127,2.15734 1.52666,5.29191 2.37997,6.98 2.53837,5.02162 4.8743,12.28169 4.66003,14.46 l -0.20006,2.02 -1.97997,-1.86 c -1.08813,-1.02017 -2.95002,-3.95264 -4.12,-6.52 -6.77248,-14.86119 -15.81574,-23.51737 -29.6,-28.36 -1.19942,-0.42138 -1.19046,-0.46785 -0.0602,-1.3 1.2583,-0.92616 4.04166,-1.42217 7.14003,-1.5 z m -214.34002,1.26 c 1.28877,-0.008 2.76232,-0.003 4.4,0 10.91785,0.021 29.10184,0.26157 48.16,0.66 l 13.59999,0.28 5.30003,8.32 c 2.91123,4.56694 5.37677,8.74014 5.48,9.28 0.18515,0.96863 0.13594,0.96669 -4.10003,0.9 -2.3609,-0.0372 -8.51539,-0.213 -13.65997,-0.4 -14.53322,-0.52824 -36.94353,-2.85729 -51.10002,-5.3 l -5.66,-0.96 -1.82,-2.84 c -1.00208,-1.55534 -2.8663,-4.27453 -4.14,-6.06 -1.27368,-1.78547 -2.38732,-3.43261 -2.48,-3.66 -0.0463,-0.11365 2.15371,-0.19541 6.02,-0.22 z m -127.579995,0.46 c 1.03944,5e-5 2.21927,-0.006 3.559996,0 14.445959,0.0595 17.025159,1.16889 11.499999,4.9 -3.1921,2.15562 -23.743005,14.63843 -32.059991,19.48 -7.071624,4.11661 -9.857224,6.48779 -13.02,11.08 -1.273056,1.84842 -3.206832,3.77177 -4.32,4.3 -2.067376,0.98104 -5.291528,1.26847 -6.02,0.54 -0.2256,-0.2256 -0.42,-2.03475 -0.42,-4.02 0,-3.85553 1.171272,-6.73686 5.4,-13.4 3.47964,-5.48282 10.249448,-13.16521 14.26,-16.18 2.051664,-1.54227 6.009864,-3.7001 8.8,-4.78 4.407076,-1.70571 5.043876,-1.92031 12.319996,-1.92 z m 217.499985,0.82 c 1.64902,-0.004 4.24409,0.059 8.26003,0.16 33.70726,0.84835 55.6313,1.59333 55.89997,1.88 0.45107,0.48013 1.70003,8.21307 1.70003,10.54 0,3.62553 0.2832,3.52308 -12.21997,4.18 -8.3664,0.43955 -40.07334,1.42795 -47.62003,1.48 -0.73446,0.005 -1.54112,-1.45207 -4.66003,-8.4 -2.07354,-4.61928 -3.91565,-8.75175 -4.08,-9.18 -0.17735,-0.46263 -0.0282,-0.65358 2.72,-0.66 z m 84.34003,4.84 c 0.72762,-0.0236 1.62912,0.0285 2.77997,0.12 4.51046,0.35861 15.21165,1.87641 15.80006,2.24 1.26336,0.78093 -5.23923,3.08808 -13.2,4.7 -5.92525,1.19971 -6.61395,1.27001 -8.08,0.68 -1.36211,-0.54802 -1.63193,-2.19514 -0.78003,-4.76 0.7241,-2.18021 1.29715,-2.90916 3.48,-2.98 z m -238.72002,3.74 c 1.92495,0 55.0127,11.67285 64.22,14.12 6.20751,1.64986 17.61444,5.50446 25.34,8.56 17.578,6.95228 26.56977,9.32 35.44002,9.32 6.75187,0 7.14182,0.17929 12.68,6.1 l 5.69997,6.1 0,30.24 0,30.26 -5.56,5.94 -5.53997,5.92 -10.76,0.64 c -8.48659,0.49582 -13.21812,1.58867 -22.44002,5.18 -22.9803,8.94935 -37.94438,13.3134 -65.84,19.26 -15.56638,3.31834 -29.53522,6.31725 -31.04,6.66 -2.20387,0.50201 -3.18789,-0.27063 -5.08,-4 -2.90944,-5.73456 -9.30603,-25.69652 -11.14,-34.78 -4.04471,-20.03301 -3.72723,-55.65604 0.64,-73.22 4.07268,-16.37935 11.41631,-36.3 13.38,-36.3 z m 285.20002,6.3 c 3.39469,-0.16631 4.42317,2.7662 8.12,9.7 10.05459,18.8585 13.09901,35.10049 12.16,65 -0.7367,23.45759 -2.7319,32.47286 -10.86003,49 -7.08256,14.40155 -7.26835,14.50003 -17.71994,9.52 -4.73773,-2.25733 -11.80845,-5.30076 -15.70003,-6.76 -3.89158,-1.45924 -7.08,-2.87539 -7.08,-3.14 0,-0.26461 1.92986,-4.29313 4.28,-8.96 7.37645,-14.64765 9.7945,-26.29157 9.72,-46.82 -0.0746,-20.54911 -2.2448,-30.75562 -9.68,-45.52 -2.45971,-4.88434 -4.29261,-9.02499 -4.08,-9.2 0.21267,-0.17501 7.53171,-3.42994 16.25997,-7.24 7.88019,-3.43972 11.93971,-5.45064 14.58003,-5.58 z m -387.220011,110.9 c 0.488216,-0.0427 1.092504,0.0414 1.84,0.22 3.658824,0.87423 4.193248,1.29611 7.28,5.54 3.662152,5.035 5.749016,6.70139 14.84,11.96 13.471746,7.79265 31.589331,19.14478 32.239991,20.2 1.39475,2.26194 -0.26505,2.64016 -12.719999,2.78 -10.283886,0.11546 -12.234546,-0.0221 -15.039996,-1.04 -9.37962,-3.40338 -16.845044,-9.75316 -23.879996,-20.32 -5.177544,-7.77691 -6.403456,-10.62042 -6.42,-14.86 -0.01216,-3.10701 0.395344,-4.35201 1.86,-4.48 z m 409.439981,3.22 0.18003,1.84 c 0.21709,2.13231 -2.36992,10.22075 -4.56,14.22 -0.81773,1.49331 -1.90208,4.67187 -2.4,7.06 -2.11981,10.16655 -9.97318,16.47352 -20.26003,16.3 -2.05351,-0.0346 -4.57319,-0.25391 -5.6,-0.5 -1.02669,-0.24609 -2.40218,-0.75186 -3.05997,-1.12 -1.11949,-0.62647 -1.07507,-0.7076 0.64,-1.4 7.98688,-3.22453 12.3808,-5.8991 16.6,-10.06 5.0361,-4.96646 8.20346,-9.57455 12.29997,-17.94 1.55609,-3.17773 3.56461,-6.37662 4.48,-7.1 l 1.68,-1.3 z m -147.92,18.66 8.72,0.1 c 10.58528,0.11951 31.39923,0.84934 42.66003,1.48 6.70989,0.3758 8.35859,0.59064 8.8,1.16 0.75008,0.96743 0.67104,4.78806 -0.21997,9.44 l -0.76006,3.9 -1.95994,0.3 c -1.89913,0.28723 -24.57369,0.96055 -51.92,1.54 -9.47449,0.20075 -13.39897,0.14826 -13.28,-0.18 0.0927,-0.25608 1.91987,-4.35166 4.05997,-9.1 l 3.89997,-8.64 z m -25.76,0.18 c 4.69472,-0.008 7.74003,0.17931 7.74003,0.62 0,0.57002 -9.58381,16.05708 -10.62003,17.16 -0.51059,0.54346 -11.65154,0.83563 -60.17999,1.56 l -12.7,0.2 1.78,-2.46 c 0.9853,-1.35083 2.97553,-4.28071 4.42,-6.5 1.60182,-2.46103 2.9892,-4.11686 3.54,-4.24 4.92828,-1.1018 23.75501,-3.61132 35.48,-4.74 10.33749,-0.99511 22.71554,-1.58634 30.53999,-1.6 z m 104.58003,5.28 c 1.80902,0.0252 4.37696,0.46624 7.88,1.26 8.77434,1.98822 13.20595,3.94811 10.28,4.56 -2.82042,0.58983 -11.11066,1.60575 -15.22003,1.86 l -4.41997,0.26 -0.88,-1.44 c -0.48224,-0.79289 -1.00243,-2.20768 -1.16,-3.14 -0.39418,-2.3334 0.50496,-3.40202 3.52,-3.36 z"
           id="path4400-3-2"
           style="color:rgb(0, 0, 0);fill:#ffffff;fill-opacity:1;fill-rule:nonzero;stroke:none;stroke-width:0.1;marker:none;visibility:visible;display:inline;overflow:visible"
           data-darkreader-inline-color=""
           data-darkreader-inline-fill=""
           data-darkreader-inline-stroke="" />
      </g>
    </g>
    <path
       style="fill:#000000;fill-opacity:0.963839;stroke:#fefefe;stroke-width:0"
       d="m 151.3639,328.16853 c -2.92139,-4.46973 -9.37551,-23.50495 -11.99279,-35.37051 -2.41704,-10.95776 -3.2031,-20.24995 -3.16656,-37.43247 0.0392,-18.4211 1.1466,-28.96237 4.29908,-40.92193 2.60506,-9.88281 6.65379,-21.78443 9.52983,-28.01384 l 2.09571,-4.53924 4.35177,0.8354 c 2.39348,0.45947 11.77482,2.45103 20.84744,4.42569 38.56751,8.39423 45.81005,10.38615 67.03221,18.43586 16.47815,6.25027 22.13144,7.69148 33.29671,8.4884 l 6.657,0.47515 5.66937,5.6431 5.66937,5.6431 -0.0227,30.14953 -0.0227,30.14954 -5.52871,5.85961 -5.5287,5.8596 -9.16768,0.65897 c -10.97196,0.78867 -13.38864,1.37707 -28.58201,6.95901 -15.56413,5.71814 -25.53444,8.90517 -37.43247,11.96537 -11.06126,2.84498 -53.78688,12.15716 -55.77877,12.15716 -0.71079,0 -1.71221,-0.64237 -2.22536,-1.4275 z"
       id="path1" />
    <path
       style="fill:#000000;fill-opacity:0.963839;stroke:#fefefe;stroke-width:0"
       d="m 49.63236,212.11464 c -1.144699,-1.1447 -0.951016,-5.13747 0.424859,-8.75848 2.860298,-7.52769 13.704958,-21.04249 20.241901,-25.2258 1.850638,-1.18431 5.27666,-2.88794 7.613383,-3.78583 3.949824,-1.51773 4.971059,-1.63047 14.522534,-1.6032 5.65067,0.0161 11.146583,0.221 12.213133,0.45526 4.25093,0.93366 3.16746,1.76017 -22.48708,17.15398 -16.452658,9.87229 -18.987877,11.72379 -22.594952,16.50133 -1.40218,1.85717 -3.177163,3.78799 -3.944407,4.29071 -2.125059,1.39239 -5.088126,1.87328 -5.989371,0.97203 z"
       id="path2" />
    <path
       style="fill:#000000;fill-opacity:0.963839;stroke:#fefefe;stroke-width:0"
       d="m 77.937242,337.60626 c -9.046854,-3.72114 -16.200531,-10.10881 -23.050225,-20.58203 -5.610969,-8.5792 -7.274861,-14.03953 -5.159658,-16.93224 0.787087,-1.07641 1.136149,-1.11809 3.480659,-0.41566 2.040546,0.61136 3.355588,1.7204 6.061965,5.11234 4.526044,5.67256 5.667028,6.51087 23.208332,17.05158 15.865332,9.53361 23.565025,14.60501 23.934135,15.76422 0.38414,1.20642 -2.2599,1.49121 -13.782958,1.48457 -10.163366,-0.006 -11.406573,-0.13132 -14.69225,-1.48278 z"
       id="path3" />
    <path
       style="fill:#000000;fill-opacity:0.963839;stroke:#fefefe;stroke-width:0"
       d="m 211.69751,339.59908 c 2.85486,-4.60403 7.49924,-10.80777 8.63172,-11.52986 3.89602,-2.48415 48.68482,-7.01222 65.30848,-6.60257 l 8.06647,0.19878 -5.15099,8.33773 -5.15099,8.33772 -2.91548,0.36287 c -1.6035,0.19958 -15.0493,0.52044 -29.87953,0.71302 -14.83024,0.19257 -29.77007,0.50307 -33.19964,0.68998 -5.10255,0.2781 -6.14008,0.18585 -5.71004,-0.50767 z"
       id="path4" />
    <path
       style="fill:#000000;fill-opacity:0.963839;stroke:#fefefe;stroke-width:0"
       d="m 304.99381,337.36803 c 0.23027,-0.61066 1.90608,-4.39356 3.72401,-8.40644 l 3.30535,-7.29616 8.46921,-0.21275 c 9.07513,-0.22797 44.86681,1.0217 49.07391,1.71342 2.31511,0.38065 2.5557,0.60373 2.74186,2.54233 0.11223,1.16878 -0.1247,4.0742 -0.52653,6.45648 l -0.73059,4.33142 -3.28016,0.35883 c -3.31036,0.36213 -48.3216,1.62184 -57.98144,1.62269 -4.70262,4.2e-4 -5.17321,-0.10849 -4.79562,-1.10982 z"
       id="path5" />
    <path
       style="fill:#000000;fill-opacity:0.963839;stroke:#fefefe;stroke-width:0"
       d="m 269.0062,190.20521 c -12.14739,-0.73754 -44.32139,-4.60019 -48.06368,-5.77028 -0.84342,-0.2637 -2.99312,-2.79332 -5.23169,-6.15628 l -3.79997,-5.70864 11.25894,-0.20387 c 6.19242,-0.11213 22.18395,-0.007 35.53674,0.23301 l 24.27778,0.43688 4.95451,8.01482 c 2.72497,4.40815 5.16403,8.3717 5.42012,8.80789 0.36596,0.62331 -1.81702,0.76794 -10.19883,0.6757 -5.86545,-0.0645 -12.23472,-0.21271 -14.15392,-0.32923 z"
       id="path6" />
    <path
       style="fill:#000000;fill-opacity:0.963839;stroke:#fefefe;stroke-width:0"
       d="m 309.58741,184.6831 c -1.65719,-3.52168 -3.47468,-7.5153 -4.03885,-8.87471 l -1.02578,-2.47167 19.19834,0.45372 c 25.34396,0.59896 46.79582,1.42208 47.18422,1.81049 0.52549,0.52548 1.794,11.81208 1.3747,12.23138 -1.27888,1.27888 -5.13698,1.49995 -53.08513,3.04178 l -6.59443,0.21206 z"
       id="path7" />
    <path
       style="fill:#000000;fill-opacity:0.963839;stroke:#fefefe;stroke-width:0"
       d="m 388.23837,185.12832 c -0.60691,-0.49151 -0.73863,-0.87805 -0.69472,-2.03872 0.0662,-1.7502 1.08494,-4.15705 1.95708,-4.62381 0.35389,-0.18939 1.48182,-0.34435 2.50651,-0.34435 2.90208,0 17.31276,1.89827 17.75304,2.33855 0.58572,0.58573 -6.51141,2.91744 -13.14892,4.31999 -5.33781,1.12791 -7.30912,1.20992 -8.37299,0.34834 z"
       id="path8" />
    <path
       style="fill:#000000;fill-opacity:0.963839;stroke:#fefefe;stroke-width:0"
       d="m 388.53143,332.25531 c -2.375,-4.77576 -1.00202,-6.49029 4.558,-5.69189 6.93107,0.99529 17.47207,4.17537 16.63029,5.01715 -0.44689,0.44689 -11.1249,1.83182 -16.68492,2.16402 l -3.65417,0.21833 z"
       id="path9" />
    <path
       style="fill:#000000;fill-opacity:0.963839;stroke:#fefefe;stroke-width:0"
       d="m 435.23172,323.45241 c -0.9596,-0.32296 -3.67187,-1.4808 -6.02726,-2.57297 -5.80631,-2.69233 -10.65919,-4.7723 -16.35149,-7.00832 -2.62504,-1.03116 -5.0465,-2.07497 -5.38102,-2.31958 -0.58293,-0.42624 -0.47311,-0.72284 2.63959,-7.12944 6.19019,-12.74072 8.33004,-19.35764 9.74109,-30.1217 0.73325,-5.59356 1.07885,-16.75679 0.7777,-25.12072 -0.62075,-17.24057 -2.36068,-24.38126 -9.66202,-39.65304 -1.62659,-3.40223 -3.17791,-6.72127 -3.44738,-7.37565 -0.48571,-1.17948 -0.48254,-1.19358 0.36631,-1.62946 1.3913,-0.71443 22.53475,-10.00448 25.10573,-11.03101 5.06278,-2.02143 6.78985,-1.76533 8.84449,1.31153 1.52007,2.27632 6.88892,12.82857 8.47774,16.66263 6.29459,15.18982 8.47206,31.75237 7.46524,56.78315 -0.73925,18.37857 -2.14918,26.7646 -6.26597,37.26874 -1.85946,4.74451 -8.32348,17.81559 -9.76309,19.74224 -1.97869,2.64811 -3.57415,3.18492 -6.51966,2.1936 z"
       id="path10" />
    <path
       style="fill:#ffd42a;fill-opacity:0.963839;stroke:#fefefe;stroke-width:0"
       d="m 430.15613,341.12689 c -2.4841,-0.1949 -6.35231,-1.29274 -6.3387,-1.799 0.003,-0.11832 1.67665,-0.92888 3.71883,-1.80125 7.24611,-3.09536 12.32708,-6.69103 16.89583,-11.95672 3.11001,-3.58444 5.32781,-7.0272 9.05661,-14.05889 2.29682,-4.3313 3.58653,-6.3925 4.73881,-7.57358 l 1.58315,-1.6227 0.0987,1.31044 c 0.1806,2.3985 -1.6706,8.41237 -4.37977,14.22828 -0.73011,1.56736 -1.75687,4.49375 -2.28169,6.5031 -1.14724,4.39239 -2.21131,6.80481 -4.15664,9.4238 -4.14717,5.58333 -10.41468,8.01502 -18.9351,7.34652 z"
       id="path11" />
    <path
       style="fill:#ffd42a;fill-opacity:0.963839;stroke:#fefefe;stroke-width:0"
       d="m 458.50011,208.49566 c -1.7515,-1.87102 -2.58997,-3.21645 -5.12118,-8.21755 -7.15193,-14.13058 -14.46458,-21.25625 -26.98457,-26.29456 l -2.99617,-1.20573 1.07107,-0.65135 c 1.75885,-1.06963 4.15737,-1.38915 9.16808,-1.22136 5.48855,0.1838 7.45937,0.71701 10.75972,2.91109 4.45813,2.96375 6.88549,6.63249 8.62038,13.02891 0.56786,2.09368 1.8481,5.66245 2.84497,7.9306 0.99687,2.26816 2.26978,5.55143 2.8287,7.29616 1.02692,3.20566 1.63973,7.45477 1.07512,7.45477 -0.16555,0 -0.73531,-0.46394 -1.26612,-1.03098 z"
       id="path12" />
    <path
       style="fill:#ffd42a;fill-opacity:0.963839;stroke:#fefefe;stroke-width:0"
       d="m 49.670393,210.846 c -2.645912,-6.89514 13.401992,-28.91067 25.107996,-34.44474 5.793494,-2.7389 9.570198,-3.19261 24.28202,-2.91705 6.931471,0.12983 7.057311,0.17197 5.535291,1.85378 -0.85658,0.94652 -9.700955,6.663 -19.654158,12.70329 -13.408417,8.13716 -19.556738,12.4522 -23.732305,16.65591 -7.432482,7.48257 -10.416787,9.07285 -11.538844,6.14881 z"
       id="path13" />
    <path
       style="fill:#ffd42a;fill-opacity:0.963839;stroke:#fefefe;stroke-width:0"
       d="m 78.73019,337.34708 c -9.576997,-3.51697 -19.913889,-13.63146 -26.245794,-25.6811 -3.70806,-7.05645 -3.934517,-10.91151 -0.668224,-11.37539 1.509713,-0.21441 3.660877,1.36996 8.5276,6.28072 4.285642,4.32442 9.571723,8.38545 15.477261,11.89039 17.917443,10.63402 30.061867,18.61267 29.561917,19.4216 -0.82002,1.32682 -22.782783,0.88495 -26.65276,-0.53622 z"
       id="path14" />
    <path
       style="fill:#ff2a2a;fill-opacity:0.963839;stroke:#fefefe;stroke-width:0"
       d="m 426.43515,339.77695 c -0.71471,-0.45403 0.96398,-1.71935 4.7729,-3.59762 9.95192,-4.90751 14.9456,-10.56615 25.0649,-28.40256 3.92557,-6.91925 3.71757,-3.17218 -0.46439,8.36585 -6.70343,18.49479 -7.73144,20.1166 -14.55913,22.96869 -3.48019,1.45376 -12.90689,1.87732 -14.81428,0.66564 z"
       id="path15" />
    <path
       style="fill:#ff2a2a;fill-opacity:0.963839;stroke:#fefefe;stroke-width:0"
       d="m 455.99043,203.67479 c -1.58472,-2.71417 -4.19353,-7.18481 -5.79736,-9.93477 -4.32643,-7.41818 -11.57686,-14.26969 -18.6871,-17.65892 -3.36076,-1.60196 -6.1332,-3.16388 -6.16097,-3.47092 -0.0828,-0.91481 6.71131,-1.71566 9.95173,-1.17306 6.34695,1.06279 7.18798,1.41614 10.50654,4.41426 3.66241,3.30876 4.60105,5.13668 9.52053,18.54023 3.0759,8.38057 4.68497,14.21803 3.91915,14.21803 -0.20416,0 -1.6678,-2.22068 -3.25252,-4.93485 z"
       id="path16" />
  </g>
</svg>
